<svg xmlns="http://www.w3.org/2000/svg" width="1536" height="1024" viewBox="0 0 1536 1024" role="img" aria-label="Arte ODS no Campo"><defs><linearGradient id="bg" x1="0" y1="0" x2="1" y2="1"><stop stop-color="#123313"/><stop offset=".55" stop-color="#3f8b3b"/><stop offset="1" stop-color="#e7f9d4"/></linearGradient><filter id="soft" x="-20%" y="-20%" width="140%" height="140%"><feGaussianBlur stdDeviation="18"/></filter><filter id="shadow" x="-20%" y="-20%" width="140%" height="140%"><feDropShadow dx="0" dy="18" stdDeviation="18" flood-color="#052414" flood-opacity=".26"/></filter></defs><rect width="1536" height="1024" fill="url(#bg)"/><g opacity=".22"><circle cx="1260" cy="145" r="240" fill="#fff" filter="url(#soft)"/><circle cx="160" cy="890" r="280" fill="#fff" filter="url(#soft)"/><circle cx="760" cy="230" r="120" fill="#d8f58c" filter="url(#soft)"/></g><g filter="url(#shadow)"><path d="M0 820c245-145 480-34 735-138s495 30 801-94v436H0Z" fill="#6db34d"/><g fill="#236f38"><rect x="100" y="505" width="42" height="320" rx="18"/><rect x="260" y="445" width="42" height="380" rx="18"/><rect x="430" y="500" width="42" height="325" rx="18"/><rect x="1090" y="480" width="42" height="345" rx="18"/><rect x="1290" y="430" width="42" height="395" rx="18"/></g><g fill="#3f9548"><circle cx="120" cy="460" r="110"/><circle cx="282" cy="390" r="130"/><circle cx="450" cy="450" r="112"/><circle cx="1110" cy="430" r="120"/><circle cx="1310" cy="370" r="138"/></g></g><g filter="url(#shadow)"><ellipse cx="680" cy="455" rx="145" ry="92" fill="#f4b85f" transform="rotate(-28 680 455)"/><ellipse cx="860" cy="455" rx="145" ry="92" fill="#ffd66d" transform="rotate(28 860 455)"/><ellipse cx="705" cy="570" rx="120" ry="72" fill="#ffcf7a" transform="rotate(28 705 570)"/><ellipse cx="835" cy="570" rx="120" ry="72" fill="#f4a755" transform="rotate(-28 835 570)"/><rect x="750" y="382" width="55" height="240" rx="28" fill="#32382c"/></g><g fill="#ffdf5d"><circle cx="1060" cy="520" r="28"/><circle cx="1130" cy="565" r="22"/><circle cx="1005" cy="585" r="18"/></g></svg>