<svg xmlns="http://www.w3.org/2000/svg" width="1536" height="1024" viewBox="0 0 1536 1024" role="img" aria-label="Arte ODS no Campo"><defs><linearGradient id="bg" x1="0" y1="0" x2="1" y2="1"><stop stop-color="#062c1b"/><stop offset=".55" stop-color="#178047"/><stop offset="1" stop-color="#d9ef98"/></linearGradient><filter id="soft" x="-20%" y="-20%" width="140%" height="140%"><feGaussianBlur stdDeviation="18"/></filter><filter id="shadow" x="-20%" y="-20%" width="140%" height="140%"><feDropShadow dx="0" dy="18" stdDeviation="18" flood-color="#052414" flood-opacity=".26"/></filter></defs><rect width="1536" height="1024" fill="url(#bg)"/><g opacity=".22"><circle cx="1260" cy="145" r="240" fill="#fff" filter="url(#soft)"/><circle cx="160" cy="890" r="280" fill="#fff" filter="url(#soft)"/><circle cx="760" cy="230" r="120" fill="#d8f58c" filter="url(#soft)"/></g><g filter="url(#shadow)"><path d="M0 1024 172 480 335 1024Z" fill="#9ccd57"/><path d="M170 1024 345 520 540 1024Z" fill="#77ad49"/><path d="M365 1024 560 455 780 1024Z" fill="#a6cc5d"/><path d="M650 1024 850 470 1085 1024Z" fill="#7fb64d"/><path d="M940 1024 1170 450 1440 1024Z" fill="#a6cc5d"/><path d="M1160 1024 1365 520 1536 1024Z" fill="#79ad4c"/></g><g filter="url(#shadow)"><rect x="610" y="550" width="410" height="170" rx="38" fill="#5e4428"/><rect x="650" y="494" width="275" height="102" rx="28" fill="#e2b848"/><circle cx="700" cy="732" r="55" fill="#172321"/><circle cx="930" cy="732" r="55" fill="#172321"/><rect x="530" y="612" width="120" height="36" rx="18" fill="#f4d46a"/></g><path d="M120 850c390-90 745-125 1290-140" fill="none" stroke="#fff" stroke-opacity=".45" stroke-width="10"/><text x="1190" y="350" font-size="118" fill="#fff" opacity=".72">✦</text></svg>